<?xml version="1.0" encoding="UTF-8"?>
<svg id="katman_1" data-name="katman 1" xmlns="http://www.w3.org/2000/svg" viewBox="0 0 1000 1000">
  <defs>
    <style>
      .cls-1 {
        fill: #303030;
      }
    </style>
  </defs>
  <path class="cls-1" d="M563.76,690.72c13.01-11.03,26.25-22.1,39.73-33.02,10.12-8.19,20.39-16.28,30.77-24.18,4.15-3.16,8.34-6.28,12.54-9.37,2.09-1.55,4.2-3.09,6.31-4.62,2.81-2.04,5.63-4.09,8.46-6.08,2.23-1.56,4.4-3.19,6.51-4.84,3.17-2.49,6.23-5.07,9.16-7.73,26.4-24.09,42.15-55.46,42.02-90.42-.05-11.43-1.79-23.25-5.42-35.32-14.12-47.04-59.8-84.34-113.18-83.96-2.63.02-5.23-1.16-7.38-2.99-3.32-2.82-5.53-7.23-5.02-11.27,5.12-40.19-14.72-75.83-47.19-92.05-.68-.35-1.36-.7-2.06-1.03-.45-.22-.91-.4-1.36-.6-.96-.43-1.93-.86-2.91-1.26-10.14-4.07-21.33-6.33-33.25-6.4-17.33-.08-33.91,5.47-47.85,14.92-25.64,17.41-42.34,48.1-38.35,81.65.53,4.44.15,11.45-1.86,14.11-1.1,1.46-4.22,3.09-7.08,4.07-1.51.52-2.94.85-3.97.85-32.03.28-60.66,13.16-81.7,33.61-2.74,2.66-5.37,5.47-7.84,8.37-1.65,1.94-3.24,3.94-4.77,5.98-2.28,3.07-4.42,6.25-6.41,9.52-.66,1.1-1.31,2.19-1.94,3.31-.58,1.03-1.15,2.06-1.69,3.11-3.29,6.28-6.05,12.86-8.21,19.67-.37,1.15-.7,2.29-1.03,3.44-15.1,53.4,9.97,101.82,52.85,135.02l99.26,76.86.02.02.93.71c-.02.07-.02.1-.03.17v.02c-1.08,5.02-1.15,9.69-.22,14.02.15.68.32,1.35.51,1.99.58,1.98,1.38,3.87,2.39,5.7.33.6.7,1.2,1.08,1.79.2.3.4.58.6.88.61.88,1.3,1.73,2.01,2.58.23.28.48.56.75.83.25.28.52.55.78.83,1.71,1.75,3.69,3.41,5.89,5h94.42c10.53-8.18,11.77-22.85,13.72-33.91ZM488.44,314.88c25.54-7.28,54.15,7.24,61.54,35.94,7.29,28.28-11.95,55.41-37.15,60.1-27.75,5.15-52.61-9.44-59.6-37.85-5.95-24.21,9.77-50.94,35.21-58.19ZM537.39,641.11l-.05-29.97-.02-10.24c0-3.79-1.25-8.92-2.54-12.43-3.8-10.27-11.93-17.53-22.25-21.05-2.33-.8-4.84-.7-7.23-1.36-2.46-.66-4.37-.02-6.7.18-13.43,1.1-24.67,9.87-29.64,22.33-1.08,2.73-2.61,11.28-2.61,14.16l-.02,8.49-.07,29.76c-.03,7.59-7.54,13.26-14.65,10.6-1.41-.52-2.71-1.35-3.87-2.63l-4.95-4.95c-.98-.98-1.99-1.91-3.04-2.81l-1.63-1.41c-.76-.66-.8-1.13-1.74-1.53-1.48-.6-2.24-2.53-3.44-3.66-2.39-2.24-4.55-4.6-6.98-6.75-.28-.27-.58-.53-.88-.8-.71-.6-1.16-1.05-1.74-1.74-2.06-2.53-8.89-7.69-8.89-9.57l.03-24.33c-11.37,1.73-23.03.66-34.16-2.91-17.03-5.47-32.77-16.76-44.1-32.83-22.88-32.4-17.65-73.72,7.63-101.07,25.11-27.15,66.74-35.89,101.35-14.02-18.16,17.01-28.43,38.38-30.27,60.18-1.18,13.67.98,27.5,6.56,40.58.38-.43.75-.83,1.2-1.25l3.32-3.07c2.29-2.13,4.52-4.2,6.81-6.45l16.42-16.1c.98-.96,1.94-1.88,2.89-2.79.78-.76,1.56-1.55,2.33-2.38,2.56-2.74,5.42-5,8.11-7.68l12.99-12.78,2.89-2.63c2.31-2.08,4.12-4.42,6.48-6.46.65-.56,3.82-3.87,5.12-5.12l8.29-7.93c1.15-1.08,1.89-1.81,2.59-3.11.7-1.28,2.46.22,3.14.86l5.7,5.45,20.95,20.59,3.67,3.64c3.79,3.74,7.24,7.58,11.25,11,.9.76,1.6,1.13,2.28,2.13.95,1.36,2.24,2.39,3.52,3.47.88.75,1.78,1.51,2.51,2.43,2.16,2.68,4.57,4.74,7.03,7.14l19.92,19.47c.33.33.85.8,1.46,1.36,5.52-13.38,7.64-27.63,6.16-41.77-2.13-20.29-11.7-40.31-29.41-56.99,22.05-18.99,52.42-17.5,77.94-4.55,41.97,21.27,57.06,72.59,33.35,113.83-10.14,17.63-27.07,30.56-46.27,36.54-11.17,3.49-23.1,4.62-34.91,2.96v25.8l-6.94,6.96-4.1,3.92-5.53,5.27-8.91,8.64-6.88,6.86c-2.01,2.01-4.04,3.01-6.18,3.46-6.86,1.46-13.29-3.95-13.29-10.97Z"/>
</svg>