<?xml version="1.0" encoding="UTF-8"?>
<svg id="katman_1" data-name="katman 1" xmlns="http://www.w3.org/2000/svg" viewBox="100 375 820 255">
  <defs>
    <style>
      .cls-1 {
        fill: none;
      }

      .cls-2 {
        fill: #303030;
      }
    </style>
  </defs>
  <g>
    <path class="cls-2" d="M452.71,399.54c1.78-3.72,4.12-6.66,7.01-8.83,2.89-2.16,6.38-3.25,10.48-3.25,2.73,0,5.35.46,7.86,1.37,2.51.91,4.71,2.32,6.61,4.22,1.97,1.52,3.49,3.23,4.56,5.13,1.06,1.9,1.9,4.08,2.51,6.55.61,2.47,1.1,5.45,1.48,8.94h2.62c0-6.99.04-12.59.11-16.8.07-4.22.19-7.8.34-10.77h-2.62c-.3,3.27-.85,5.34-1.65,6.21-.8.87-1.96.74-3.47-.4-2.51-1.97-5.37-3.7-8.6-5.18-3.23-1.48-7.35-2.22-12.36-2.22-7.9,0-14.87,1.79-20.9,5.35-6.04,3.57-10.79,8.54-14.24,14.92-3.46,6.38-5.18,13.82-5.18,22.33s1.67,16.06,5.01,22.22c3.34,6.15,8.03,10.86,14.07,14.13,6.04,3.27,13.08,4.9,21.13,4.9,4.94,0,8.98-.74,12.13-2.22,3.15-1.48,6.13-3.21,8.94-5.18,1.67-1.06,2.87-1.18,3.59-.34.72.84,1.23,2.89,1.54,6.15h2.62c-.15-3.04-.27-6.78-.34-11.22-.08-4.44-.11-10.27-.11-17.49h-2.62c-.53,5.62-1.33,10.12-2.39,13.5-1.06,3.38-3.08,6.21-6.04,8.49-1.82,1.82-4.01,3.21-6.55,4.16-2.55.95-5.07,1.42-7.58,1.42-4.03,0-7.52-1.06-10.48-3.19-2.96-2.13-5.37-5.01-7.23-8.66-1.86-3.65-3.23-7.8-4.1-12.47-.87-4.67-1.31-9.55-1.31-14.64s.42-9.85,1.25-14.53c.83-4.67,2.14-8.87,3.93-12.59Z"/>
    <path class="cls-2" d="M563.85,386.33c-2.36,0-4.67-.04-6.95-.11-2.28-.07-4.71-.15-7.29-.23v2.28c3.11.08,5.53.78,7.23,2.11,1.71,1.33,2.47,3.55,2.28,6.66-.19,3.12-1.69,7.4-4.5,12.87l-8.85,17.78-17.35-33.39c-.91-1.75-1.06-3.02-.46-3.82.61-.8,1.67-1.35,3.19-1.65,1.52-.3,3.23-.46,5.13-.46v-2.39c-3.19.15-6.72.28-10.6.4-3.87.11-7.48.17-10.82.17-2.58,0-4.96-.04-7.12-.11-2.16-.07-4.27-.23-6.32-.46v2.39c.83,0,1.8.42,2.91,1.25,1.1.84,2.34,2.55,3.7,5.13l21.99,40.69v19.24c0,2.73-.21,4.78-.63,6.15-.42,1.37-1.24,2.28-2.45,2.73-1.22.46-3.04.76-5.47.91v2.28c1.82-.15,4.33-.25,7.52-.28,3.19-.04,6.57-.06,10.14-.06,3.19,0,6.4.02,9.63.06,3.23.04,5.87.13,7.92.28v-2.28c-2.43-.15-4.25-.46-5.47-.91-1.22-.46-2.03-1.37-2.45-2.73-.42-1.37-.63-3.42-.63-6.15v-26.6l13.44-26.6c2.13-4.1,4.06-7.16,5.81-9.17,1.75-2.01,3.46-3.36,5.13-4.04v-2.28c-1.14.08-2.45.15-3.93.23-1.48.08-3.06.11-4.73.11Z"/>
    <path class="cls-2" d="M635.96,392.48c-5.24-4.18-13.14-6.27-23.7-6.27-1.44,0-3.87.04-7.29.11-3.42.08-6.95.11-10.59.11-3.19,0-6.4-.04-9.63-.11-3.23-.07-5.79-.15-7.69-.23v2.28c2.35.08,4.16.36,5.41.85,1.25.49,2.09,1.41,2.51,2.73.42,1.33.63,3.4.63,6.21v56.51c0,2.73-.21,4.78-.63,6.15-.42,1.37-1.24,2.28-2.45,2.73-1.22.46-3.04.76-5.47.91v2.28c2.51-.07,5.31-.15,8.43-.23,3.11-.08,6.3-.11,9.57-.11,4.1,0,8.01.04,11.73.11,3.72.08,6.76.15,9.11.23v-2.51c-3.42-.08-6-.34-7.75-.8-1.75-.46-2.93-1.4-3.53-2.85-.61-1.44-.91-3.65-.91-6.61v-19.82h6.04c6.68,0,12.23-.8,16.63-2.39,4.4-1.59,7.88-3.66,10.42-6.21,2.54-2.54,4.35-5.32,5.41-8.32,1.06-3,1.59-5.87,1.59-8.6,0-6.61-2.62-12-7.86-16.18ZM623.6,420.73c-.87,3.34-2.47,6.04-4.79,8.09-2.32,2.05-5.72,3.08-10.2,3.08h-4.9v-33.72c0-3.95.44-6.57,1.31-7.86.87-1.29,2.79-1.94,5.75-1.94,5.16,0,8.81,1.79,10.94,5.35,2.13,3.57,3.19,8.96,3.19,16.18,0,3.87-.44,7.48-1.31,10.82Z"/>
    <path class="cls-2" d="M723.05,462.26c-.65.42-1.46.67-2.45.74-1.44,0-2.55-.61-3.3-1.82-.76-1.21-1.48-3.34-2.16-6.38l-2.62-11.73c-.99-4.71-3.13-8.24-6.44-10.59-3.29-2.35-8.39-3.82-15.27-4.44,2.99-.33,5.69-.84,8.03-1.54,4.4-1.33,7.88-3.11,10.42-5.35,2.54-2.24,4.35-4.67,5.41-7.29,1.06-2.62,1.59-5.22,1.59-7.8,0-4.18-1.16-7.75-3.47-10.71-2.32-2.96-5.81-5.22-10.48-6.78-4.67-1.56-10.54-2.34-17.6-2.34-1.44,0-3.87.04-7.29.11-3.42.08-6.95.11-10.59.11-3.19,0-6.4-.04-9.63-.11-3.23-.07-5.79-.15-7.69-.23v2.28c2.35.08,4.16.36,5.41.85,1.25.49,2.09,1.41,2.51,2.73.42,1.33.63,3.4.63,6.21v56.51c0,2.73-.21,4.78-.63,6.15-.42,1.37-1.24,2.28-2.45,2.73-1.22.46-3.04.76-5.47.91v2.28c1.9-.15,4.46-.25,7.69-.28,3.23-.04,6.67-.06,10.31-.06,3.19,0,6.34.02,9.46.06,3.11.04,5.7.13,7.75.28v-2.28c-2.43-.15-4.25-.46-5.47-.91-1.21-.46-2.03-1.37-2.45-2.73-.42-1.37-.63-3.42-.63-6.15v-26.2h7.41c2.35,0,4.2.7,5.52,2.11,1.33,1.41,2.37,3.3,3.13,5.7.76,2.39,1.4,5.18,1.94,8.37l2.05,11.39c.83,4.71,2.58,7.94,5.24,9.68,2.66,1.75,6.04,2.62,10.14,2.62,3.34,0,6.19-.51,8.54-1.54,2.35-1.02,4.56-2.71,6.61-5.07l-1.6-1.37c-.76.84-1.46,1.46-2.11,1.88ZM677.48,390.32c.87-1.29,2.79-1.94,5.75-1.94,5.16,0,8.81,1.65,10.94,4.96,2.13,3.3,3.19,7.96,3.19,13.96,0,3.49-.44,6.66-1.31,9.51-.87,2.85-2.47,5.13-4.79,6.84-2.32,1.71-5.72,2.56-10.2,2.56h-4.9v-28.03c0-3.95.44-6.57,1.31-7.86Z"/>
    <path class="cls-2" d="M790.66,386.44c-2.05,0-4.25-.04-6.61-.11-2.36-.07-4.25-.15-5.7-.23v2.28c3.19.3,5.56.95,7.12,1.94,1.56.99,2.6,2.6,3.13,4.84.53,2.24.8,5.45.8,9.63v30.08c0,5.77-.63,10.88-1.88,15.32-1.25,4.44-3.38,7.92-6.38,10.42-3,2.51-7.16,3.76-12.48,3.76-3.04,0-5.58-.49-7.63-1.48-2.05-.99-3.66-2.45-4.84-4.39-1.18-1.94-2.01-4.37-2.51-7.29-.5-2.92-.74-6.28-.74-10.08v-42.95c0-2.81.23-4.88.68-6.21.46-1.33,1.35-2.24,2.68-2.73,1.33-.49,3.28-.78,5.87-.85v-2.28c-2.13.08-4.8.15-8.03.23-3.23.08-6.59.11-10.08.11s-6.86-.04-10.08-.11c-3.23-.07-5.79-.15-7.69-.23v2.28c2.43.08,4.25.36,5.47.85,1.21.49,2.03,1.41,2.45,2.73.42,1.33.63,3.4.63,6.21v35.77c0,4.86.23,9.06.68,12.59.46,3.53,1.33,6.59,2.62,9.17,1.29,2.58,3.15,4.9,5.58,6.95,2.89,2.2,6.15,3.7,9.8,4.5,3.65.8,7.21,1.2,10.71,1.2,5.85,0,10.67-.95,14.47-2.85,3.8-1.9,6.68-4.48,8.66-7.75,1.75-2.96,2.96-6.49,3.65-10.6.68-4.1,1.02-8.62,1.02-13.56v-30.19c0-3.72.19-6.61.57-8.66.38-2.05,1.2-3.55,2.45-4.5,1.25-.95,3.09-1.58,5.52-1.88v-2.28c-1.22.08-2.72.15-4.5.23-1.79.08-3.59.11-5.41.11Z"/>
    <path class="cls-2" d="M861.87,435.54c-1.75-2.96-4.06-5.62-6.95-7.98-2.89-2.35-6.15-4.71-9.8-7.06-4.18-2.89-7.73-5.35-10.65-7.41-2.92-2.05-5.15-4.16-6.66-6.32-1.52-2.16-2.28-4.77-2.28-7.8,0-3.65,1.18-6.49,3.53-8.54,2.35-2.05,5.35-3.08,9-3.08,4.03,0,7.42,1.2,10.2,3.59,2.77,2.39,4.92,5.45,6.44,9.17,1.52,3.72,2.43,7.56,2.73,11.51h2.62c0-5.32.02-9.61.06-12.87.04-3.26.11-5.9.23-7.92.11-2.01.21-3.74.29-5.18h-2.62c-.23,1.67-.51,2.92-.85,3.76-.34.84-.89,1.25-1.65,1.25-.53,0-1.08-.13-1.65-.4-.57-.27-1.31-.66-2.22-1.2-1.75-1.06-3.84-2.07-6.27-3.02-2.43-.95-5.89-1.42-10.37-1.42s-8.56.74-12.47,2.22c-3.91,1.48-7.06,3.76-9.46,6.84-2.39,3.08-3.59,7.01-3.59,11.79,0,4.18.93,7.79,2.79,10.82,1.86,3.04,4.35,5.74,7.46,8.09,3.11,2.36,6.46,4.71,10.03,7.06,3.34,2.13,6.28,4.22,8.83,6.27,2.54,2.05,4.56,4.25,6.04,6.61,1.48,2.36,2.22,5.13,2.22,8.32,0,2.81-.65,5.17-1.94,7.06-1.29,1.9-2.98,3.32-5.07,4.27-2.09.95-4.46,1.42-7.12,1.42-4.86,0-8.75-1.33-11.68-3.99-2.93-2.66-5.09-6.17-6.49-10.54-1.41-4.37-2.26-9.06-2.56-14.07h-2.62c0,6-.02,10.96-.06,14.87-.04,3.91-.08,7.08-.11,9.51-.04,2.43-.13,4.56-.28,6.38h2.62c.23-1.67.51-2.92.86-3.76.34-.83.89-1.25,1.65-1.25.91,0,2.2.53,3.87,1.6,1.9.99,4.25,1.94,7.06,2.85,2.81.91,6.57,1.37,11.28,1.37,5.09,0,9.76-.82,14.01-2.45,4.25-1.63,7.69-4.08,10.31-7.35,2.62-3.26,3.93-7.41,3.93-12.42,0-4.1-.87-7.63-2.62-10.59Z"/>
  </g>
  <g>
    <path class="cls-2" d="M456.68,543.79v1.9c-2.03.06-3.57.3-4.62.71-1.05.41-1.73,1.18-2.05,2.29-.32,1.11-.48,2.84-.48,5.19v47.24c0,2.29.17,4,.52,5.14.35,1.14,1.03,1.9,2.05,2.29,1.01.38,2.54.63,4.57.76v1.9c-1.71-.13-3.87-.21-6.48-.24-2.6-.03-5.24-.05-7.91-.05-3.05,0-5.92.02-8.62.05-2.7.03-4.84.11-6.43.24v-1.9c2.03-.13,3.56-.38,4.57-.76,1.01-.38,1.7-1.14,2.05-2.29.35-1.14.52-2.86.52-5.14v-47.24c0-2.35-.18-4.08-.52-5.19-.35-1.11-1.05-1.87-2.09-2.29-1.05-.41-2.56-.65-4.52-.71v-1.9c1.59.06,3.73.13,6.43.19,2.7.06,5.57.1,8.62.1,2.67,0,5.3-.03,7.91-.1,2.6-.06,4.76-.13,6.48-.19ZM489.64,543.79v1.81c-2.03.45-4.21,1.33-6.52,2.67-2.32,1.33-4.75,3.49-7.29,6.48l-17.91,21.34,5.52-7.91,22.67,35.34c.89,1.46,1.84,2.64,2.86,3.52,1.02.89,2.35,1.65,4,2.29v1.9c-2.22-.13-4.7-.21-7.43-.24-2.73-.03-5.21-.05-7.43-.05-1.33,0-2.95.02-4.86.05-1.91.03-4.32.11-7.24.24v-1.9c2.6-.13,4.17-.49,4.71-1.1.54-.6.3-1.67-.71-3.19l-13.81-22.38c-.89-1.46-1.68-2.56-2.38-3.29-.7-.73-1.4-1.24-2.1-1.52-.7-.29-1.62-.46-2.76-.52v-2c2.79-.06,5.29-.82,7.48-2.29,2.19-1.46,4.59-3.68,7.19-6.67l5.62-6.76c2.41-2.86,3.82-5.32,4.24-7.38.41-2.06,0-3.67-1.24-4.81-1.24-1.14-3.13-1.75-5.67-1.81v-1.81c1.59.06,3.1.11,4.52.14,1.43.03,2.92.06,4.48.1,1.55.03,3.25.05,5.1.05s3.51-.03,5-.1c1.49-.06,2.81-.13,3.95-.19Z"/>
    <path class="cls-2" d="M546.21,543.79c-.25,2.79-.43,5.49-.52,8.1-.1,2.6-.14,4.6-.14,6,0,1.27.03,2.48.1,3.62.06,1.14.13,2.1.19,2.86h-2.19c-.64-4.63-1.62-8.3-2.95-11-1.33-2.7-3.06-4.6-5.19-5.71-2.13-1.11-4.62-1.67-7.48-1.67h-3.91c-1.84,0-3.24.16-4.19.48-.95.32-1.59.95-1.9,1.91-.32.95-.48,2.41-.48,4.38v49.53c0,1.97.16,3.43.48,4.38.32.95.95,1.59,1.9,1.9.95.32,2.35.48,4.19.48h4.67c2.86,0,5.38-.62,7.57-1.86,2.19-1.24,4.06-3.35,5.62-6.33,1.56-2.98,2.75-7.02,3.57-12.1h2.19c-.19,2.03-.29,4.7-.29,8,0,1.46.03,3.52.1,6.19.06,2.67.25,5.43.57,8.29-3.24-.13-6.89-.21-10.95-.24-4.06-.03-7.68-.05-10.86-.05h-6.1c-2.48,0-5.14.02-8,.05-2.86.03-5.75.06-8.67.1-2.92.03-5.68.08-8.29.14v-1.9c2.03-.13,3.56-.38,4.57-.76,1.01-.38,1.7-1.14,2.05-2.29.35-1.14.52-2.86.52-5.14v-47.24c0-2.35-.18-4.08-.52-5.19-.35-1.11-1.05-1.87-2.09-2.29-1.05-.41-2.56-.65-4.52-.71v-1.9c2.6.06,5.37.11,8.29.14,2.92.03,5.81.06,8.67.1,2.86.03,5.52.05,8,.05h6.1c2.92,0,6.24-.02,9.95-.05,3.71-.03,7.03-.11,9.95-.24ZM531.36,576.36v1.9h-16.67v-1.9h16.67ZM534.12,563.79c-.25,3.62-.37,6.38-.33,8.29.03,1.9.05,3.65.05,5.24s.03,3.33.1,5.24c.06,1.9.22,4.67.48,8.29h-2.19c-.32-2.22-.9-4.29-1.76-6.19-.86-1.9-2.08-3.44-3.67-4.62-1.59-1.17-3.65-1.76-6.19-1.76v-1.9c1.9,0,3.52-.4,4.86-1.19,1.33-.79,2.43-1.84,3.29-3.14.86-1.3,1.54-2.68,2.05-4.14.51-1.46.89-2.82,1.14-4.1h2.19Z"/>
    <path class="cls-2" d="M610.32,543.69v1.91c-1.4.57-2.83,1.7-4.29,3.38-1.46,1.68-3.08,4.24-4.86,7.67l-18,35.62h-4.48l-22.29-41.24c-1.14-2.16-2.18-3.59-3.1-4.29-.92-.7-1.73-1.05-2.43-1.05v-2c1.71.19,3.48.32,5.29.38,1.81.06,3.79.1,5.95.1,2.79,0,5.81-.05,9.05-.14s6.19-.21,8.86-.33v2c-1.59,0-3.02.13-4.29.38-1.27.25-2.16.71-2.67,1.38-.51.67-.38,1.73.38,3.19l15.05,28.95-2.95,3.81,9.81-19.72c2.35-4.57,3.6-8.16,3.76-10.76.16-2.6-.48-4.46-1.91-5.57-1.43-1.11-3.44-1.7-6.05-1.76v-1.91c2.16.06,4.19.13,6.1.19,1.91.06,3.84.1,5.81.1,1.4,0,2.71-.03,3.95-.1,1.24-.06,2.33-.13,3.29-.19ZM589.93,577.22v23.91c0,2.29.17,4,.52,5.14s1.03,1.9,2.05,2.29c1.01.38,2.54.63,4.57.76v1.9c-1.71-.13-3.92-.21-6.62-.24-2.7-.03-5.38-.05-8.05-.05-2.99,0-5.81.02-8.48.05-2.67.03-4.76.11-6.29.24v-1.9c2.03-.13,3.56-.38,4.57-.76,1.02-.38,1.7-1.14,2.05-2.29s.52-2.86.52-5.14v-19.52l8.29,5.91,6.86-10.29Z"/>
    <path class="cls-2" d="M637.94,542.55c3.75,0,6.63.4,8.67,1.19,2.03.79,3.78,1.64,5.24,2.52.76.45,1.38.78,1.86,1,.48.22.94.33,1.38.33.63,0,1.1-.35,1.38-1.05.29-.7.52-1.75.71-3.14h2.19c-.06,1.21-.14,2.65-.24,4.33-.1,1.68-.16,3.89-.19,6.62-.03,2.73-.05,6.32-.05,10.76h-2.19c-.25-3.3-1.02-6.51-2.29-9.62-1.27-3.11-3.06-5.67-5.38-7.67-2.32-2-5.16-3-8.53-3-3.05,0-5.56.86-7.52,2.57-1.97,1.71-2.95,4.1-2.95,7.14,0,2.54.63,4.71,1.9,6.52,1.27,1.81,3.13,3.57,5.57,5.29,2.44,1.71,5.41,3.78,8.91,6.19,3.05,1.97,5.78,3.94,8.19,5.91,2.41,1.97,4.35,4.19,5.81,6.67,1.46,2.48,2.19,5.43,2.19,8.86,0,4.19-1.1,7.65-3.29,10.38-2.19,2.73-5.06,4.78-8.62,6.14-3.56,1.36-7.46,2.05-11.71,2.05-3.94,0-7.08-.38-9.43-1.14-2.35-.76-4.32-1.55-5.9-2.38-1.4-.89-2.48-1.33-3.24-1.33-.63,0-1.09.35-1.38,1.05-.29.7-.52,1.75-.71,3.14h-2.19c.13-1.52.21-3.3.24-5.33.03-2.03.06-4.68.09-7.95.03-3.27.05-7.41.05-12.43h2.19c.25,4.19.97,8.11,2.14,11.76,1.17,3.65,2.98,6.59,5.43,8.81,2.44,2.22,5.7,3.33,9.76,3.33,2.22,0,4.21-.4,5.95-1.19,1.75-.79,3.16-1.98,4.24-3.57,1.08-1.59,1.62-3.55,1.62-5.9,0-2.67-.62-4.98-1.86-6.95-1.24-1.97-2.92-3.81-5.05-5.52-2.13-1.71-4.59-3.46-7.38-5.24-2.99-1.97-5.78-3.94-8.38-5.91-2.6-1.97-4.68-4.22-6.24-6.76-1.56-2.54-2.33-5.56-2.33-9.05,0-4,1-7.29,3-9.86,2-2.57,4.63-4.48,7.91-5.72,3.27-1.24,6.75-1.86,10.43-1.86Z"/>
  </g>
  <path class="cls-1" d="M323.5,492.58c2.44-7.15,7.47-12.77,14.58-15.41,2.43-.9,5.98-1.76,8.61-1.76h7.09s20.76-.05,20.76-.05c4.86,0,8.61-4.46,7.6-9.21-.32-1.48-1-2.88-2.39-4.28l-4.75-4.76-5.98-6.17-3.65-3.83-2.72-2.84-4.82-4.81h-17.87c1.15-8.18.37-16.44-2.05-24.18-4.14-13.3-13.1-25.03-25.31-32.05-28.56-16.42-64.11-5.97-78.84,23.1-8.96,17.68-10,38.71,3.15,53.98,11.55-12.27,25.42-18.9,39.47-20.37,9.79-1.02,19.67.45,28.93,4.27-.39.43-.71.78-.94,1.01l-13.49,13.8c-1.67,1.7-3.1,3.37-4.95,4.87-.63.51-1.16,1.13-1.68,1.74-.75.89-1.46,1.78-2.41,2.44-.69.47-.94.96-1.47,1.58-2.37,2.77-5.03,5.17-7.62,7.79l-2.52,2.54-14.26,14.51-3.77,3.95c-.45.47-1.48,1.69-.6,2.17.9.48,1.4,1,2.15,1.8l5.49,5.74c.86.9,3.15,3.1,3.54,3.54,1.42,1.63,3.04,2.89,4.48,4.49l1.82,2,8.85,9c1.85,1.86,3.42,3.84,5.32,5.62.58.53,1.12,1.07,1.65,1.61.63.66,1.27,1.32,1.93,2l11.15,11.37c1.55,1.59,2.99,3.13,4.46,4.72l2.13,2.3c.29.31.56.56.86.83-9.06,3.87-18.63,5.36-28.1,4.55-15.1-1.28-29.9-8.39-41.68-20.97-15.14,23.97-9.09,52.81,9.71,70.2,18.94,17.5,47.56,21.13,70,5.28,11.13-7.85,18.95-18.75,22.74-30.54,2.47-7.71,3.21-15.79,2.01-23.66l16.85.02c1.3,0,4.88-4.73,6.63-6.16.48-.4.79-.71,1.21-1.21.18-.21.37-.41.55-.61,1.48-1.68,3.12-3.18,4.67-4.83.78-.83,2.12-1.36,2.53-2.38.28-.66.6-.68,1.06-1.21l.97-1.13c.62-.73,1.28-1.43,1.95-2.11l3.43-3.43c.89-.8,1.46-1.7,1.82-2.68,1.84-4.93-2.09-10.13-7.34-10.15l-20.61-.05h-5.88c-1.99-.01-7.92-1.07-9.8-1.82-8.63-3.44-14.71-11.23-15.47-20.53-.14-1.61-.59-2.93-.13-4.64.46-1.66.39-3.39.94-5.01Z"/>
  <path class="cls-1" d="M173.49,466.64c-19.87,5.12-29.93,24.94-24.89,42.62,5.02,17.62,23.53,28.5,40.3,24.38,19.68-4.84,29.78-22.06,26.21-41.28-3.25-17.46-22.04-30.78-41.62-25.73Z"/>
  <path class="cls-2" d="M614.45,471.3l-161.43.12h-17.95s0,0,0,0c-4.42-11.84-17.08-12.72-26.17-14.32-7.64-9.01-15.31-18.18-22.87-27.51-5.67-7.01-11.28-14.12-16.74-21.31-2.19-2.88-4.35-5.78-6.49-8.69-1.07-1.45-2.14-2.91-3.2-4.37-1.42-1.94-2.83-3.9-4.21-5.86-1.08-1.54-2.21-3.05-3.35-4.51-1.73-2.2-3.51-4.32-5.35-6.34-16.69-18.29-38.41-29.19-62.62-29.1-7.92.03-16.1,1.24-24.47,3.75-32.58,9.78-58.41,41.42-58.15,78.39.01,1.82-.81,3.62-2.07,5.11-1.96,2.3-5.01,3.83-7.8,3.48-27.84-3.54-52.52,10.2-63.75,32.68-.24.47-.48.94-.71,1.43-.15.31-.28.63-.41.94-.3.67-.6,1.33-.87,2.01-2.82,7.02-4.38,14.78-4.43,23.03-.06,12,3.79,23.49,10.33,33.14,12.06,17.76,33.31,29.32,56.55,26.56,3.07-.37,7.93-.1,9.77,1.29,1.01.76,2.14,2.92,2.82,4.9.36,1.05.59,2.04.59,2.75.2,22.19,9.11,42.01,23.28,56.58,1.84,1.9,3.79,3.72,5.8,5.43,1.35,1.14,2.73,2.24,4.14,3.3,2.13,1.58,4.33,3.06,6.59,4.44.76.46,1.52.91,2.29,1.35.71.4,1.43.79,2.15,1.17,4.35,2.28,8.91,4.19,13.63,5.68.79.25,1.59.48,2.38.71,36.99,10.46,70.52-6.9,93.51-36.61l53.23-68.75h.01s.49-.66.49-.66c.05.01.07.01.12.02h.01c3.48.75,6.71.79,9.71.15.47-.1.93-.22,1.38-.36,1.37-.4,2.68-.96,3.95-1.66.41-.23.83-.48,1.24-.75.21-.14.4-.28.61-.41.61-.43,1.2-.9,1.78-1.39.2-.16.39-.33.58-.52.2-.17.38-.36.58-.54,1.89-1.84,3.64-4.1,5.25-6.77l22.93.07,146.5.41h42.43c.23-.14.52-.28.89-.39,2.36-.71,7.96-.67,23,.39.21.02.4.03.61.05l.45,20.03.23,10.24,7.93,1.05,4.15.54.05,7.07.1,13.94-12.44,2.84.14,33.46,66.99.03c.37-2.14.63-4.68.76-7.35.26-5.41-.05-11.36-1.31-15.74-7.43-4.88-11.7-11.52-12.96-18.48-.02-.1-.05-.21-.07-.32-.01-.07-.01-.15-.02-.23-1.25-7.95,1.42-16.29,7.85-22.92,8.96-9.26,23.88-10.53,34.5-2.76.13.08.24.18.36.26.28.21.54.41.81.63,1.53,1.24,2.96,2.69,4.25,4.35,1.42,1.82,2.58,3.76,3.49,5.77.08.18.16.36.24.54.02.06.05.12.07.17,1.74,4.17,2.39,8.61,1.93,12.95-.74,7.1-4.41,13.94-11.07,18.85-.86.63-1.77,1.24-2.74,1.81-.54,3.07-.83,6.13-.92,9.37-.06,2.01-.05,4.1.03,6.28.08,2.13.22,4.37.43,6.75l61.37-.02h6.82l.05-3.99.38-29.63-5.05-.91-8.85-1.58.37-20.43,7.95-1.78,5.41-1.21.18-18.08.13-12.13,26.31-.02c2.72,0,6.04-.63,9.16-1.89.05-.02.09-.03.14-.06.06-.02.1-.05.16-.07,2.57-1.08,4.98-2.59,6.78-4.55,1.83-1.99,3.01-4.44,3.06-7.35l.49-28.25c.1-5.45-3.97-11.84-9.76-14.4-.2-.09-.4-.17-.61-.25-.83-.31-1.68-.56-2.55-.71-.67-.12-1.33-.17-2.03-.17l-217.21-.18M625.7,461.8,188.9,533.65c-16.77,4.12-35.28-6.77-40.3-24.38-5.04-17.69,5.02-37.5,24.89-42.62,19.59-5.05,38.38,8.27,41.62,25.73,3.57,19.22-6.54,36.43-26.21,41.28ZM322.68,502.22c.76,9.3,6.84,17.09,15.47,20.53,1.89.75,7.81,1.81,9.8,1.81h5.88s20.61.06,20.61.06c5.26.02,9.18,5.22,7.34,10.15-.36.98-.93,1.88-1.82,2.68l-3.43,3.43c-.68.68-1.32,1.38-1.94,2.11l-.98,1.13c-.46.53-.78.55-1.06,1.21-.41,1.02-1.75,1.55-2.53,2.38-1.55,1.66-3.19,3.15-4.67,4.83-.18.2-.37.4-.55.61-.41.49-.72.81-1.21,1.21-1.75,1.43-5.33,6.16-6.63,6.16l-16.85-.02c1.2,7.87.46,15.95-2.01,23.66-3.79,11.8-11.61,22.69-22.74,30.54-22.44,15.85-51.06,12.22-70-5.28-18.8-17.39-24.86-46.23-9.71-70.2,11.78,12.58,26.58,19.69,41.68,20.97,9.47.82,19.05-.68,28.1-4.55-.3-.26-.58-.52-.86-.83l-2.13-2.3c-1.47-1.59-2.91-3.13-4.46-4.72l-11.15-11.37c-.67-.68-1.3-1.35-1.93-2-.53-.54-1.07-1.08-1.65-1.61-1.9-1.77-3.46-3.75-5.32-5.62l-8.85-9-1.82-2c-1.44-1.6-3.06-2.85-4.48-4.49-.39-.45-2.68-2.65-3.54-3.54l-5.49-5.74c-.75-.79-1.25-1.31-2.15-1.8-.89-.48.15-1.7.6-2.17l3.77-3.95,14.26-14.51,2.52-2.54c2.59-2.62,5.25-5.02,7.62-7.79.53-.62.78-1.1,1.47-1.58.94-.66,1.66-1.55,2.41-2.44.52-.61,1.05-1.23,1.68-1.74,1.85-1.5,3.28-3.16,4.95-4.87l13.49-13.8c.23-.23.55-.59.94-1.01-9.26-3.82-19.14-5.29-28.93-4.27-14.05,1.47-27.92,8.1-39.47,20.37-13.15-15.27-12.12-36.31-3.15-53.98,14.73-29.07,50.28-39.52,78.84-23.1,12.21,7.02,21.16,18.75,25.31,32.05,2.42,7.73,3.2,16,2.05,24.18h17.87l4.82,4.81,2.72,2.84,3.65,3.83,5.98,6.17,4.75,4.76c1.39,1.39,2.08,2.8,2.39,4.28,1.01,4.75-2.74,9.21-7.59,9.21l-20.76.03h-7.09c-2.62.01-6.18.87-8.61,1.77-7.11,2.64-12.14,8.26-14.58,15.41-.55,1.61-.48,3.35-.94,5.01-.46,1.7-.01,3.03.13,4.64Z"/>
  <path d="M646.92,529.4c-.37.11-.66.25-.89.4h23.9c-15.04-1.06-20.65-1.11-23.01-.4Z"/>
</svg>